<svg xmlns="http://www.w3.org/2000/svg" version="1.1" xmlns:xlink="http://www.w3.org/1999/xlink" xmlns:svgjs="http://svgjs.dev/svgjs" width="2000" height="1500" viewBox="0 0 2000 1500"><rect width="2000" height="1500" fill="#ffffff"></rect><g transform="matrix(0.75,0,0,0.75,249.090909090909,523.1566693357158)"><svg viewBox="0 0 396 125" data-background-color="#e0ded5" preserveAspectRatio="xMidYMid meet" height="631" width="2000" xmlns="http://www.w3.org/2000/svg" xmlns:xlink="http://www.w3.org/1999/xlink"><g id="tight-bounds" transform="matrix(1,0,0,1,0.2400000000000091,0.35263655993153975)"><svg viewBox="0 0 395.52 124.29472688013689" height="124.29472688013689" width="395.52"><g><svg viewBox="0 0 708.9781549067933 222.80098636762554" height="124.29472688013689" width="395.52"><g><rect width="14.53865620929841" height="193.45961189663578" x="260.8601892490697" y="14.670687235494881" fill="#000000" opacity="1" stroke-width="0" stroke="transparent" fill-opacity="1" class="rect-yte-0" data-fill-palette-color="primary" rx="1%" id="yte-0" data-palette-color="#243cfc"></rect></g><g transform="matrix(1,0,0,1,313.45815490679325,30.792321560214532)"><svg viewBox="0 0 395.52 161.21634324719648" height="161.21634324719648" width="395.52"><g id="textblocktransform"><svg viewBox="0 0 395.52 161.21634324719648" height="161.21634324719648" width="395.52" id="textblock"><g><svg viewBox="0 0 395.52 161.21634324719648" height="161.21634324719648" width="395.52"><g transform="matrix(1,0,0,1,0,0)"><svg width="395.52" viewBox="2.1499999999999995 -40.8 102.55 41.8" height="161.21634324719648" data-palette-color="#243cfc"><path d="M6.65-8.1L6.65-8.1 6.65-37.6 2.6-38.15Q2.3-39.05 2.6-39.95L2.6-39.95 9.45-39.8 29.65-39.8 29.7-28.2Q28.6-28 27.85-28.2L27.85-28.2 25.5-37.25 12-37.25 12-22.25 20-22.4 21.15-27.3Q21.9-27.5 23-27.3L23-27.3Q22.8-24.5 22.8-20.85L22.8-20.85Q22.8-17.5 22.95-14.35L22.95-14.35Q22.05-14.05 21.15-14.35L21.15-14.35 20.05-19.55 12-19.7 12-2.55 27-2.55 29.35-11.6Q30.1-11.8 31.2-11.6L31.2-11.6 31.15 0 9.45 0 2.3 0.15Q2-0.75 2.3-1.65L2.3-1.65 6.45-2.2Q6.65-4.75 6.65-8.1ZM68.75-7.4L68.75-7.4Q69.6-6.85 70.05-5.5L70.05-5.5Q63.1 1 55.95 1L55.95 1Q51.05 1 47.4-0.78 43.75-2.55 41.35-5.48 38.95-8.4 37.77-12.13 36.6-15.85 36.6-19.75L36.6-19.75Q36.6-23.7 37.95-27.48 39.3-31.25 41.9-34.23 44.5-37.2 48.32-39 52.15-40.8 57.05-40.8L57.05-40.8Q63.5-40.8 69.05-37.8L69.05-37.8 69.05-28.2Q68.15-28.05 67.45-28.05L67.45-28.05Q66.7-28.05 66.2-28.2L66.2-28.2 64.6-36.55Q61.55-38.55 56.45-38.55L56.45-38.55Q53.3-38.55 50.77-37.13 48.25-35.7 46.47-33.27 44.7-30.85 43.75-27.58 42.8-24.3 42.8-20.6L42.8-20.6Q42.8-16.65 43.72-13.3 44.65-9.95 46.35-7.5 48.05-5.05 50.47-3.68 52.9-2.3 55.9-2.3L55.9-2.3Q59.5-2.3 62.85-3.7 66.2-5.1 68.75-7.4ZM104.65 0L81.45 0 74.3 0.15Q74-0.75 74.3-1.65L74.3-1.65 78.45-2.2Q78.65-4.75 78.65-8.1L78.65-8.1 78.65-37.6 74.59-38.1Q74.4-38.85 74.59-39.95L74.59-39.95Q77.34-39.75 81.45-39.75L81.45-39.75Q85.09-39.75 88.34-39.9L88.34-39.9Q88.65-39 88.34-38.1L88.34-38.1 84.2-37.5Q84-35.6 84-31.65L84-31.65 84-2.55 100.5-2.55 102.84-11.6Q103.59-11.8 104.7-11.6L104.7-11.6 104.65 0Z" opacity="1" transform="matrix(1,0,0,1,0,0)" fill="#000000" class="wordmark-text-0" data-fill-palette-color="primary" id="text-0"></path></svg></g></svg></g></svg></g></svg></g><g><svg viewBox="0 0 222.80087980064457 222.80098636762554" height="222.80098636762554" width="222.80087980064457"><g><svg xmlns="http://www.w3.org/2000/svg" xmlns:xlink="http://www.w3.org/1999/xlink" version="1.1" x="0" y="0" viewBox="1 0.9999876293241867 126 126.0000602665466" style="enable-background:new 0 0 128 128;" xml:space="preserve" height="222.80098636762554" width="222.80087980064457" class="icon-icon-0" data-fill-palette-color="accent" id="icon-0"><g fill="#243cfc" data-fill-palette-color="accent"><path d="M110.937 52.703C103.246 48.263 94.284 47.083 85.706 49.382 77.439 51.597 70.488 56.793 66.019 64.05 75.422 81.459 69.307 103.373 52.065 113.328A36.54 36.54 0 0 1 33.752 118.243C33.12 118.243 32.488 118.215 31.858 118.181A62.7 62.7 0 0 0 64 127C95.814 127 122.104 103.414 126.378 72.777 124.154 64.602 118.837 57.265 110.937 52.703" fill="#000000" data-fill-palette-color="accent"></path><path d="M64 1A62.8 62.8 0 0 0 40.425 5.577C34.448 11.591 30.749 19.872 30.749 29 30.749 47.01 45.145 61.711 63.034 62.226 67.972 54.2 75.658 48.452 84.8 46.002 94.282 43.462 104.186 44.765 112.687 49.673A36.53 36.53 0 0 1 126.982 64.716C126.983 64.476 127 64.24 127 64 127 29.206 98.795 1 64 1" fill="#000000" data-fill-palette-color="accent"></path><path d="M50.314 110.297C65.912 101.291 71.444 81.472 62.946 65.723 43.168 65.162 27.249 48.91 27.249 29 27.249 21.663 29.419 14.825 33.14 9.082 13.961 19.882 1 40.421 1 64 1 84.167 10.486 102.105 25.228 113.636 33.414 115.793 42.419 114.854 50.314 110.297" fill="#000000" data-fill-palette-color="accent"></path></g></svg></g></svg></g></svg></g><defs></defs></svg><rect width="395.52" height="124.29472688013689" fill="none" stroke="none" visibility="hidden"></rect></g></svg></g></svg>